<?xml version="1.0" encoding="UTF-8"?>
<svg id="grass" xmlns="http://www.w3.org/2000/svg" width="1000" height="1000" xmlns:xlink="http://www.w3.org/1999/xlink" viewBox="0 0 1000 1000">
  <defs>
    <clipPath id="clippath">
      <path d="M333.33,111.11H125.04c-7.69,0-13.93,6.24-13.93,13.93v97.18h333.33v-97.18c0-7.69-6.24-13.93-13.93-13.93h-97.18Z" fill="none"/>
    </clipPath>
  </defs>
  <g>
    <g>
      <g>
        <g>
          <polygon points="779.76 692.17 693.93 778 779.76 778 779.76 692.17" fill="#1f5e39"/>
          <rect x="779.76" y="692.17" width="85.83" height="85.83" fill="#1f5e39"/>
        </g>
        <rect x="693.93" y="778" width="85.83" height="85.83" fill="#1f5e39"/>
      </g>
      <polygon points="779.76 863.83 865.58 778 779.76 778 779.76 863.83" fill="#1f5e39"/>
    </g>
    <path d="M829.21,815.68l5.19,4.46c.57.49-.08,1.58-.88,1.46l-6.4-.96c-.69-.1-1.34.74-1,1.31l3.1,5.29c.39.67-.52,1.61-1.21,1.25l-7.14-3.73c-.36-.19-.87-.01-1.13.39l-3.17,4.78c-.22.34-.22.74.02.97l3.71,3.71c.48.48-.05,1.45-.8,1.44l-5.66-.04c-.75,0-1.29.96-.8,1.44l4.91,4.91c.54.54-.2,1.62-.98,1.42l-9.26-2.42c-.55-.14-1.17.38-1.16.97l.31,15.21c.01.65-.74,1.2-1.29.93l-7.3-3.66c-.58-.29-1.37.34-1.28,1.01l.69,5.12c.09.69-.74,1.32-1.31.99l-3.34-1.9c-.71-.4-1.66.62-1.2,1.28h0c.38.55-.23,1.43-.94,1.36l-11.71-4.51c-.59.41-8,.35-7.89-.31l9.28-6.96c.03-.21.14-.41.31-.57l49.09-47.12c.59-.57,1.44-.23,1.29.52l-2.24,11.29c-.05.26.02.5.2.65Z" fill="#1f5e39"/>
    <path d="M861.6,785.27l3.29,2.76c.36.31-.13,1.07-.66,1.03l-4.28-.34c-.46-.04-.94.57-.74.94l1.84,3.42c.23.43-.43,1.11-.88.9l-4.64-2.17c-.23-.11-.58.03-.78.32l-2.37,3.38c-.17.24-.18.51-.03.66l2.33,2.33c.3.3-.11.98-.61,1.01l-3.82.25c-.51.03-.92.71-.61,1.01l3.08,3.08c.34.34-.21,1.11-.73,1.01l-6.14-1.19c-.36-.07-.81.32-.83.71l-.52,10.26c-.02.44-.56.84-.91.69l-4.76-2.12c-.38-.17-.94.29-.91.74l.22,3.42c.03.46-.56.93-.93.73l-2.17-1.13c-.46-.24-1.15.5-.87.92h0c.23.35-.22.98-.7.96l-2.19-.06c-.13,0-.28.05-.42.15l-5.09-2.57c-.42.31-5.42.62-5.32.17l6.61-5.15c.03-.14.12-.28.23-.4l35.43-34.19c.43-.41.98-.23.85.29l-2.05,7.73c-.05.18,0,.34.1.43Z" fill="#1f5e39"/>
    <path d="M731.91,739.9l-5.19-4.46c-.57-.49.08-1.58.88-1.46l6.4.96c.69.1,1.34-.74,1-1.31l-3.1-5.29c-.39-.67.52-1.61,1.21-1.25l7.14,3.73c.36.19.87.01,1.13-.39l3.17-4.78c.22-.34.22-.74-.02-.97l-3.71-3.71c-.48-.48.05-1.45.8-1.44l5.66.04c.75,0,1.29-.96.8-1.44l-4.91-4.91c-.54-.54.2-1.62.98-1.42l9.26,2.42c.55.14,1.17-.38,1.16-.97l-.31-15.21c-.01-.65.74-1.2,1.29-.93l7.3,3.66c.58.29,1.37-.34,1.28-1.01l-.69-5.12c-.09-.69.74-1.32,1.31-.99l3.34,1.9c.71.4,1.66-.62,1.2-1.28h0c-.38-.55.23-1.43.94-1.36l11.71,4.51c.59-.41,8-.35,7.89.31l-9.28,6.96c-.03.21-.14.41-.31.57l-49.09,47.12c-.59.57-1.44.23-1.29-.52l2.24-11.29c.05-.26-.02-.5-.2-.65Z" fill="#1f5e39"/>
    <path d="M699.51,770.31l-3.29-2.76c-.36-.31.13-1.07.66-1.03l4.28.34c.46.04.94-.57.74-.94l-1.84-3.42c-.23-.43.43-1.11.88-.9l4.64,2.17c.23.11.58-.03.78-.32l2.37-3.38c.17-.24.18-.51.03-.66l-2.33-2.33c-.3-.3.11-.98.61-1.01l3.82-.25c.51-.03.92-.71.61-1.01l-3.08-3.08c-.34-.34.21-1.11.73-1.01l6.14,1.19c.36.07.81-.32.83-.71l.52-10.26c.02-.44.56-.84.91-.69l4.76,2.12c.38.17.94-.29.91-.74l-.22-3.42c-.03-.46.56-.93.93-.73l2.17,1.13c.46.24,1.15-.5.87-.92h0c-.23-.35.22-.98.7-.96l2.19.06c.13,0,.28-.05.42-.15l5.09,2.57c.42-.31,5.42-.62,5.32-.17l-6.61,5.15c-.03.14-.12.28-.23.4l-35.43,34.19c-.43.41-.98.23-.85-.29l2.05-7.73c.05-.18,0-.34-.1-.43Z" fill="#1f5e39"/>
    <path d="M789.97,688.53l-.52-3.68c-.06-.41,1.19-.57,1.68-.22l3.91,2.81c.42.3,1.49.23,1.66-.12l1.57-3.2c.2-.4,1.52-.42,1.76-.02l2.45,4.15c.12.21.61.33,1.1.28l5.69-.61c.4-.04.68-.2.68-.38v-2.83c0-.37,1.08-.53,1.61-.24l4.03,2.17c.53.29,1.61.13,1.61-.24v-3.75c0-.42,1.31-.54,1.72-.17l4.9,4.46c.29.26,1.12.3,1.53.07l10.67-5.92c.46-.25,1.39-.17,1.59.14l2.61,4.18c.21.33,1.23.39,1.64.1l3.17-2.22c.43-.3,1.48-.22,1.65.12l1.03,2c.22.42,1.63.4,1.78-.03h0c.12-.35,1.19-.46,1.65-.16l5.16,6.19c.72.07,5.98,2.92,5.44,3.13l-11.64-.89c-.17.07-.4.1-.63.1l-68.96-.75c-.84,0-1.2-.46-.55-.69l9.69-3.46c.22-.08.34-.2.33-.32Z" fill="#1f5e39"/>
    <path d="M692.79,852.12l-3.68.52c-.41.06-.57-1.19-.22-1.68l2.81-3.91c.3-.42.23-1.49-.12-1.66l-3.2-1.57c-.4-.2-.42-1.52-.02-1.76l4.15-2.45c.21-.12.33-.61.28-1.1l-.61-5.69c-.04-.4-.2-.68-.38-.68h-2.83c-.37,0-.53-1.08-.24-1.61l2.17-4.03c.29-.53.13-1.61-.24-1.61h-3.75c-.42,0-.54-1.31-.17-1.72l4.46-4.9c.26-.29.3-1.12.07-1.53l-5.92-10.67c-.25-.46-.17-1.39.14-1.59l4.18-2.61c.33-.21.39-1.23.1-1.64l-2.22-3.17c-.3-.43-.22-1.48.12-1.65l2-1.03c.42-.22.4-1.63-.03-1.78h0c-.35-.12-.46-1.19-.16-1.65l6.19-5.16c.07-.72,2.92-5.98,3.13-5.44l-.89,11.64c.07.17.1.4.1.63l-.75,68.96c0,.84-.46,1.2-.69.55l-3.46-9.69c-.08-.22-.2-.34-.32-.33Z" fill="#1f5e39"/>
    <path d="M868.67,702.82l3.78-.54c.42-.06.59,1.22.23,1.72l-2.88,4c-.31.43-.23,1.53.12,1.7l3.28,1.61c.41.2.43,1.56.02,1.8l-4.25,2.51c-.21.13-.34.63-.29,1.12l.63,5.84c.04.41.2.7.39.7h2.9c.38,0,.55,1.1.25,1.65l-2.23,4.13c-.3.55-.13,1.65.25,1.65h3.85c.43,0,.56,1.34.17,1.76l-4.57,5.03c-.27.3-.31,1.15-.07,1.57l6.07,10.95c.26.47.18,1.43-.14,1.63l-4.29,2.68c-.34.21-.4,1.26-.11,1.68l2.27,3.25c.31.44.23,1.51-.12,1.69l-2.05,1.06c-.43.22-.41,1.68.03,1.82h0c.36.12.47,1.22.17,1.69l-6.35,5.29c-.07.74-2.99,6.14-3.21,5.58l.91-11.94c-.07-.18-.1-.41-.1-.64l.77-70.71c0-.86.47-1.23.71-.57l3.54,9.94c.08.23.21.35.33.33Z" fill="#1f5e39"/>
    <path d="M772,867.68l.54,3.78c.06.42-1.22.59-1.72.23l-4-2.88c-.43-.31-1.53-.23-1.7.12l-1.61,3.28c-.2.41-1.56.43-1.8.02l-2.51-4.25c-.13-.21-.63-.34-1.12-.29l-5.84.63c-.41.04-.7.2-.7.39v2.9c0,.38-1.1.55-1.65.25l-4.13-2.23c-.55-.3-1.65-.13-1.65.25v3.85c0,.43-1.34.56-1.76.17l-5.03-4.57c-.3-.27-1.15-.31-1.57-.07l-10.95,6.07c-.47.26-1.43.18-1.63-.14l-2.68-4.29c-.21-.34-1.26-.4-1.68-.11l-3.25,2.27c-.44.31-1.51.23-1.69-.12l-1.06-2.05c-.22-.43-1.68-.41-1.82.03h0c-.12.36-1.22.47-1.69.17l-5.29-6.35c-.74-.07-6.14-2.99-5.58-3.21l11.94.91c.18-.07.41-.1.64-.1l70.71.77c.86,0,1.23.47.57.71l-9.94,3.54c-.23.08-.35.21-.33.33Z" fill="#1f5e39"/>
  </g>
  <g>
    <rect x="576.47" y="136.73" width="280.19" height="145.11" rx="28.51" ry="28.51" fill="#1f5e39"/>
    <path d="M600.82,283.26l-.56,9.18c-.06,1.02,1.28,1.43,1.8.56l4.2-7c.45-.76,1.6-.57,1.78.3l1.69,7.98c.21,1.01,1.64,1.04,1.89.04l2.63-10.34c.13-.52.66-.83,1.18-.7l6.12,1.53c.43.11.74.5.74.94v7.05c0,.92,1.16,1.32,1.73.61l4.34-5.42c.57-.72,1.73-.31,1.73.61v9.35c0,1.04,1.41,1.35,1.85.42l5.27-11.11c.31-.65,1.2-.75,1.65-.18l11.48,14.76c.49.63,1.5.43,1.71-.34l2.81-10.43c.22-.82,1.32-.98,1.77-.26l3.41,5.52c.46.74,1.59.55,1.78-.3l1.11-4.99c.23-1.06,1.76-1,1.91.07h0c.13.88,1.28,1.14,1.77.4l2.27-3.41c.14-.21.35-.36.6-.41l2.68-11.61c.77-.17,6.44-7.27,5.85-7.8l-12.52,2.21c-.18-.17-.43-.25-.67-.25l-74.17,1.87c-.9.02-1.29,1.15-.59,1.72l10.43,8.61c.24.2.37.5.35.81Z" fill="#1f5e39"/>
    <path d="M749.92,285.54l.64,6.45c.07.71-1.47,1.01-2.06.39l-4.81-4.91c-.52-.53-1.83-.4-2.04.21l-1.93,5.6c-.24.71-1.88.73-2.17.03l-3.01-7.26c-.15-.36-.75-.58-1.35-.49l-7.01,1.07c-.5.08-.84.35-.84.66v4.95c0,.65-1.32.93-1.98.43l-4.96-3.81c-.66-.5-1.98-.22-1.98.43v6.56c0,.73-1.61.95-2.12.29l-6.03-7.8c-.36-.46-1.37-.53-1.88-.13l-13.14,10.36c-.56.44-1.71.3-1.95-.24l-3.21-7.32c-.25-.58-1.51-.69-2.02-.18l-3.9,3.88c-.52.52-1.82.39-2.03-.21l-1.27-3.5c-.27-.74-2.01-.7-2.19.05h0c-.14.62-1.46.8-2.03.28l-2.6-2.39c-.16-.15-.4-.25-.68-.29l-3.07-8.15c-.88-.12-7.37-5.1-6.69-5.47l14.33,1.55c.21-.12.49-.18.77-.17l84.87,1.32c1.03.02,1.47.81.68,1.21l-11.93,6.05c-.27.14-.42.35-.4.57Z" fill="#1f5e39"/>
    <path d="M835.86,283.82l.56,6.67c.06.74-1.28,1.04-1.8.41l-4.2-5.08c-.45-.55-1.6-.41-1.78.22l-1.68,5.77c-.27.93-1.58.97-1.9.05l-2.63-7.5c-.13-.38-.66-.6-1.18-.51l-6.12,1.11c-.43.08-.74.36-.74.68v5.12c0,.67-1.16.96-1.73.44l-4.34-3.94c-.57-.52-1.73-.23-1.73.44v6.79c0,.75-1.41.98-1.85.3l-5.27-8.07c-.31-.47-1.2-.55-1.65-.13l-11.48,10.72c-.49.46-1.5.31-1.71-.25l-2.81-7.57c-.22-.6-1.32-.71-1.77-.19l-3.41,4.01c-.46.54-1.59.4-1.78-.22l-1.11-3.62c-.23-.77-1.76-.72-1.91.05h0c-.13.64-1.28.83-1.77.29l-2.27-2.47s0,0,0,0c-.43-.46-.81-.97-1-1.58l-5.06,3.24c-1.19.76-2.76,0-2.88-1.41-.44-4.92-.62-14.35-.18-14.63,0,0,77.22-.42,76.53,0l.67,6.87v3.87s-.02.09-.02.13Z" fill="#1f5e39"/>
    <g>
      <path d="M769.82,134.93l.56-6.67c.06-.74-1.28-1.04-1.8-.41l-4.2,5.08c-.45.55-1.6.41-1.78-.22l-1.68-5.77c-.27-.93-1.58-.97-1.9-.05l-2.63,7.5c-.13.38-.66.6-1.18.51l-6.12-1.11c-.43-.08-.74-.36-.74-.68v-5.12c0-.67-1.16-.96-1.73-.44l-4.34,3.94c-.57.52-1.73.23-1.73-.44v-6.79c0-.75-1.41-.98-1.85-.3l-5.27,8.07c-.31.47-1.2.55-1.65.13l-11.48-10.72c-.49-.46-1.5-.31-1.71.25l-2.81,7.57c-.22.6-1.32.71-1.77.19l-3.41-4.01c-.46-.54-1.59-.4-1.78.22l-1.11,3.62c-.23.77-1.76.72-1.91-.05h0c-.13-.64-1.28-.83-1.77-.29l-2.27,2.47s0,0,0,0c-.43.46-.81.97-1,1.58l-5.06-3.24c-1.19-.76-2.76,0-2.88,1.41-.44,4.92-.62,14.35-.18,14.63,0,0,77.22.42,76.53,0l.67-6.87v-3.87s-.02-.09-.02-.13Z" fill="#1f5e39"/>
      <path d="M843.68,134.93l.56-6.67c.06-.74-1.28-1.04-1.8-.41l-4.2,5.08c-.45.55-1.6.41-1.78-.22l-1.68-5.77c-.27-.93-1.58-.97-1.9-.05l-2.63,7.5c-.13.38-.66.6-1.18.51l-6.12-1.11c-.43-.08-.74-.36-.74-.68v-5.12c0-.67-1.16-.96-1.73-.44l-4.34,3.94c-.57.52-1.73.23-1.73-.44v-6.79c0-.75-1.41-.98-1.85-.3l-5.27,8.07c-.31.47-1.2.55-1.65.13l-11.48-10.72c-.49-.46-1.5-.31-1.71.25l-2.81,7.57c-.22.6-1.32.71-1.77.19l-3.41-4.01c-.46-.54-1.59-.4-1.78.22l-1.11,3.62c-.23.77-1.76.72-1.91-.05h0c-.13-.64-1.28-.83-1.77-.29l-2.27,2.47s0,0,0,0c-.43.46-.81.97-1,1.58l-5.06-3.24c-1.19-.76-2.76,0-2.88,1.41-.44,4.92-.62,14.35-.18,14.63,0,0,77.22.42,76.53,0l.67-6.87v-3.87s-.02-.09-.02-.13Z" fill="#1f5e39"/>
    </g>
    <g>
      <path d="M670.71,136.77l.56-6.67c.06-.74-1.28-1.04-1.8-.41l-4.2,5.08c-.45.55-1.6.41-1.78-.22l-1.68-5.77c-.27-.93-1.58-.97-1.9-.05l-2.63,7.5c-.13.38-.66.6-1.18.51l-6.12-1.11c-.43-.08-.74-.36-.74-.68v-5.12c0-.67-1.16-.96-1.73-.44l-4.34,3.94c-.57.52-1.73.23-1.73-.44v-6.79c0-.75-1.41-.98-1.85-.3l-5.27,8.07c-.31.47-1.2.55-1.65.13l-11.48-10.72c-.49-.46-1.5-.31-1.71.25l-2.81,7.57c-.22.6-1.32.71-1.77.19l-3.41-4.01c-.46-.54-1.59-.4-1.78.22l-1.11,3.62c-.23.77-1.76.72-1.91-.05h0c-.13-.64-1.28-.83-1.77-.29l-2.27,2.47s0,0,0,0c-.43.46-.81.97-1,1.58l-5.06-3.24c-1.19-.76-2.76,0-2.88,1.41-.44,4.92-.62,14.35-.18,14.63,0,0,77.22.42,76.53,0l.67-6.87v-3.87s-.02-.09-.02-.13Z" fill="#1f5e39"/>
      <path d="M744.56,136.77l.56-6.67c.06-.74-1.28-1.04-1.8-.41l-4.2,5.08c-.45.55-1.6.41-1.78-.22l-1.68-5.77c-.27-.93-1.58-.97-1.9-.05l-2.63,7.5c-.13.38-.66.6-1.18.51l-6.12-1.11c-.43-.08-.74-.36-.74-.68v-5.12c0-.67-1.16-.96-1.73-.44l-4.34,3.94c-.57.52-1.73.23-1.73-.44v-6.79c0-.75-1.41-.98-1.85-.3l-5.27,8.07c-.31.47-1.2.55-1.65.13l-11.48-10.72c-.49-.46-1.5-.31-1.71.25l-2.81,7.57c-.22.6-1.32.71-1.77.19l-3.41-4.01c-.46-.54-1.59-.4-1.78.22l-1.11,3.62c-.23.77-1.76.72-1.91-.05h0c-.13-.64-1.28-.83-1.77-.29l-2.27,2.47s0,0,0,0c-.43.46-.81.97-1,1.58l-5.06-3.24c-1.19-.76-2.76,0-2.88,1.41-.44,4.92-.62,14.35-.18,14.63,0,0,77.22.42,76.53,0l.67-6.87v-3.87s-.02-.09-.02-.13Z" fill="#1f5e39"/>
    </g>
    <g>
      <path d="M576.33,206.98l-4.89-.41c-.54-.05-.76.94-.3,1.32l3.73,3.08c.4.33.3,1.17-.16,1.31l-4.23,1.23c-.68.2-.71,1.16-.04,1.39l5.5,1.93c.28.1.44.48.37.86l-.81,4.49c-.06.32-.26.54-.5.54h-3.75c-.49,0-.7.85-.32,1.27l2.88,3.18c.38.42.17,1.27-.32,1.27h-4.97c-.55,0-.72,1.03-.22,1.36l5.91,3.86c.35.23.4.88.1,1.21l-7.85,8.41c-.34.36-.23,1.1.18,1.25l5.55,2.06c.44.16.52.97.14,1.29l-2.94,2.5c-.39.34-.29,1.16.16,1.3l2.66.81c.56.17.53,1.29-.04,1.4h0c-.47.09-.61.94-.21,1.3l1.81,1.66s0,0,0,0c.34.32.71.59,1.16.73l-2.37,3.71c-.56.87,0,2.02,1.04,2.11,3.6.32,10.52.45,10.72.14,0,0,.3-56.59,0-56.09l-5.03-.49h-2.84s-.07.01-.1.01Z" fill="#1f5e39"/>
      <path d="M576.33,152.86l-4.89-.41c-.54-.05-.76.94-.3,1.32l3.73,3.08c.4.33.3,1.17-.16,1.31l-4.23,1.23c-.68.2-.71,1.16-.04,1.39l5.5,1.93c.28.1.44.48.37.86l-.81,4.49c-.06.32-.26.54-.5.54h-3.75c-.49,0-.7.85-.32,1.27l2.88,3.18c.38.42.17,1.27-.32,1.27h-4.97c-.55,0-.72,1.03-.22,1.36l5.91,3.86c.35.23.4.88.1,1.21l-7.85,8.41c-.34.36-.23,1.1.18,1.25l5.55,2.06c.44.16.52.97.14,1.29l-2.94,2.5c-.39.34-.29,1.16.16,1.3l2.66.81c.56.17.53,1.29-.04,1.4h0c-.47.09-.61.94-.21,1.3l1.81,1.66s0,0,0,0c.34.32.71.59,1.16.73l-2.37,3.71c-.56.87,0,2.02,1.04,2.11,3.6.32,10.52.45,10.72.14,0,0,.3-56.59,0-56.09l-5.03-.49h-2.84s-.07.01-.1.01Z" fill="#1f5e39"/>
    </g>
    <g>
      <path d="M858.48,212.77l4.89.41c.54.05.76-.94.3-1.32l-3.73-3.08c-.4-.33-.3-1.17.16-1.31l4.23-1.23c.68-.2.71-1.16.04-1.39l-5.5-1.93c-.28-.1-.44-.48-.37-.86l.81-4.49c.06-.32.26-.54.5-.54h3.75c.49,0,.7-.85.32-1.27l-2.88-3.18c-.38-.42-.17-1.27.32-1.27h4.97c.55,0,.72-1.03.22-1.36l-5.91-3.86c-.35-.23-.4-.88-.1-1.21l7.85-8.41c.34-.36.23-1.1-.18-1.25l-5.55-2.06c-.44-.16-.52-.97-.14-1.29l2.94-2.5c.39-.34.29-1.16-.16-1.3l-2.66-.81c-.56-.17-.53-1.29.04-1.4h0c.47-.09.61-.94.21-1.3l-1.81-1.66s0,0,0,0c-.34-.32-.71-.59-1.16-.73l2.37-3.71c.56-.87,0-2.02-1.04-2.11-3.6-.32-10.52-.45-10.72-.14,0,0-.3,56.59,0,56.09l5.03.49h2.84s.07-.01.1-.01Z" fill="#1f5e39"/>
      <path d="M858.48,266.9l4.89.41c.54.05.76-.94.3-1.32l-3.73-3.08c-.4-.33-.3-1.17.16-1.31l4.23-1.23c.68-.2.71-1.16.04-1.39l-5.5-1.93c-.28-.1-.44-.48-.37-.86l.81-4.49c.06-.32.26-.54.5-.54h3.75c.49,0,.7-.85.32-1.27l-2.88-3.18c-.38-.42-.17-1.27.32-1.27h4.97c.55,0,.72-1.03.22-1.36l-5.91-3.86c-.35-.23-.4-.88-.1-1.21l7.85-8.41c.34-.36.23-1.1-.18-1.25l-5.55-2.06c-.44-.16-.52-.97-.14-1.29l2.94-2.5c.39-.34.29-1.16-.16-1.3l-2.66-.81c-.56-.17-.53-1.29.04-1.4h0c.47-.09.61-.94.21-1.3l-1.81-1.66s0,0,0,0c-.34-.32-.71-.59-1.16-.73l2.37-3.71c.56-.87,0-2.02-1.04-2.11-3.6-.32-10.52-.45-10.72-.14,0,0-.3,56.59,0,56.09l5.03.49h2.84s.07-.01.1-.01Z" fill="#1f5e39"/>
    </g>
  </g>
  <g>
    <rect x="411.46" y="683.06" width="175.48" height="74.62" rx="16.18" ry="16.18" fill="#1f5e39"/>
    <path d="M426.71,758.41l-.35,4.72c-.04.52.8.74,1.13.29l2.63-3.6c.28-.39,1-.29,1.12.15l1.06,4.1c.13.52,1.03.53,1.19.02l1.65-5.32c.08-.27.41-.43.74-.36l3.83.79c.27.06.46.26.46.48v3.63c0,.47.72.68,1.08.31l2.72-2.79c.36-.37,1.08-.16,1.08.31v4.81c0,.53.88.7,1.16.21l3.3-5.71c.19-.34.75-.39,1.03-.09l7.19,7.59c.31.33.94.22,1.07-.18l1.76-5.36c.14-.42.83-.51,1.11-.13l2.14,2.84c.29.38.99.28,1.11-.15l.69-2.57c.15-.54,1.1-.51,1.2.04h0c.08.45.8.59,1.11.21l1.42-1.75c.09-.11.22-.18.37-.21l1.68-5.97c.48-.09,4.03-3.74,3.66-4.01l-7.84,1.14c-.12-.09-.27-.13-.42-.13l-46.45.96c-.56.01-.81.59-.37.89l6.53,4.43c.15.1.23.26.22.42Z" fill="#1f5e39"/>
    <path d="M520.09,759.58l.4,3.31c.04.37-.92.52-1.29.2l-3.01-2.53c-.33-.27-1.15-.2-1.28.11l-1.21,2.88c-.15.36-1.17.37-1.36.01l-1.89-3.73c-.09-.19-.47-.3-.84-.25l-4.39.55c-.31.04-.53.18-.53.34v2.55c0,.33-.83.48-1.24.22l-3.11-1.96c-.41-.26-1.24-.11-1.24.22v3.37c0,.37-1.01.49-1.33.15l-3.78-4.01c-.22-.24-.86-.27-1.18-.06l-8.23,5.33c-.35.23-1.07.16-1.22-.12l-2.01-3.76c-.16-.3-.94-.35-1.27-.09l-2.44,1.99c-.33.27-1.14.2-1.27-.11l-.8-1.8c-.17-.38-1.26-.36-1.37.03h0c-.09.32-.91.41-1.27.15l-1.63-1.23c-.1-.08-.25-.13-.43-.15l-1.92-4.19c-.55-.06-4.61-2.62-4.19-2.82l8.98.8c.13-.06.31-.09.48-.09l53.15.68c.64,0,.92.41.43.62l-7.47,3.11c-.17.07-.27.18-.25.29Z" fill="#1f5e39"/>
    <path d="M573.91,758.7l.35,3.43c.04.38-.8.53-1.13.21l-2.63-2.61c-.28-.28-1-.21-1.12.11l-1.05,2.97c-.17.48-.99.5-1.19.03l-1.65-3.86c-.08-.19-.41-.31-.74-.26l-3.83.57c-.27.04-.46.19-.46.35v2.63c0,.34-.72.49-1.08.23l-2.72-2.02c-.36-.27-1.08-.12-1.08.23v3.49c0,.39-.88.51-1.16.16l-3.3-4.15c-.19-.24-.75-.28-1.03-.07l-7.19,5.51c-.31.24-.94.16-1.07-.13l-1.76-3.89c-.14-.31-.83-.37-1.11-.1l-2.14,2.06c-.29.28-.99.21-1.11-.11l-.69-1.86c-.15-.39-1.1-.37-1.2.03h0c-.08.33-.8.43-1.11.15l-1.42-1.27s0,0,0,0c-.27-.24-.51-.5-.63-.81l-3.17,1.66c-.74.39-1.73,0-1.81-.73-.27-2.53-.39-7.38-.12-7.52,0,0,48.36-.21,47.93,0l.42,3.53v1.99s-.01.05-.01.07Z" fill="#1f5e39"/>
    <g>
      <path d="M532.55,682.14l.35-3.43c.04-.38-.8-.53-1.13-.21l-2.63,2.61c-.28.28-1,.21-1.12-.11l-1.05-2.97c-.17-.48-.99-.5-1.19-.03l-1.65,3.86c-.08.19-.41.31-.74.26l-3.83-.57c-.27-.04-.46-.19-.46-.35v-2.63c0-.34-.72-.49-1.08-.23l-2.72,2.02c-.36.27-1.08.12-1.08-.23v-3.49c0-.39-.88-.51-1.16-.16l-3.3,4.15c-.19.24-.75.28-1.03.07l-7.19-5.51c-.31-.24-.94-.16-1.07.13l-1.76,3.89c-.14.31-.83.37-1.11.1l-2.14-2.06c-.29-.28-.99-.21-1.11.11l-.69,1.86c-.15.39-1.1.37-1.2-.03h0c-.08-.33-.8-.43-1.11-.15l-1.42,1.27s0,0,0,0c-.27.24-.51.5-.63.81l-3.17-1.66c-.74-.39-1.73,0-1.81.73-.27,2.53-.39,7.38-.12,7.52,0,0,48.36.21,47.93,0l.42-3.53v-1.99s-.01-.05-.01-.07Z" fill="#1f5e39"/>
      <path d="M578.81,682.14l.35-3.43c.04-.38-.8-.53-1.13-.21l-2.63,2.61c-.28.28-1,.21-1.12-.11l-1.05-2.97c-.17-.48-.99-.5-1.19-.03l-1.65,3.86c-.08.19-.41.31-.74.26l-3.83-.57c-.27-.04-.46-.19-.46-.35v-2.63c0-.34-.72-.49-1.08-.23l-2.72,2.02c-.36.27-1.08.12-1.08-.23v-3.49c0-.39-.88-.51-1.16-.16l-3.3,4.15c-.19.24-.75.28-1.03.07l-7.19-5.51c-.31-.24-.94-.16-1.07.13l-1.76,3.89c-.14.31-.83.37-1.11.1l-2.14-2.06c-.29-.28-.99-.21-1.11.11l-.69,1.86c-.15.39-1.1.37-1.2-.03h0c-.08-.33-.8-.43-1.11-.15l-1.42,1.27s0,0,0,0c-.27.24-.51.5-.63.81l-3.17-1.66c-.74-.39-1.73,0-1.81.73-.27,2.53-.39,7.38-.12,7.52,0,0,48.36.21,47.93,0l.42-3.53v-1.99s-.01-.05-.01-.07Z" fill="#1f5e39"/>
    </g>
    <g>
      <path d="M470.48,683.08l.35-3.43c.04-.38-.8-.53-1.13-.21l-2.63,2.61c-.28.28-1,.21-1.12-.11l-1.05-2.97c-.17-.48-.99-.5-1.19-.03l-1.65,3.86c-.08.19-.41.31-.74.26l-3.83-.57c-.27-.04-.46-.19-.46-.35v-2.63c0-.34-.72-.49-1.08-.23l-2.72,2.02c-.36.27-1.08.12-1.08-.23v-3.49c0-.39-.88-.51-1.16-.16l-3.3,4.15c-.19.24-.75.28-1.03.07l-7.19-5.51c-.31-.24-.94-.16-1.07.13l-1.76,3.89c-.14.31-.83.37-1.11.1l-2.14-2.06c-.29-.28-.99-.21-1.11.11l-.69,1.86c-.15.39-1.1.37-1.2-.03h0c-.08-.33-.8-.43-1.11-.15l-1.42,1.27s0,0,0,0c-.27.24-.51.5-.63.81l-3.17-1.66c-.74-.39-1.73,0-1.81.73-.27,2.53-.39,7.38-.12,7.52,0,0,48.36.21,47.93,0l.42-3.53v-1.99s-.01-.05-.01-.07Z" fill="#1f5e39"/>
      <path d="M516.73,683.08l.35-3.43c.04-.38-.8-.53-1.13-.21l-2.63,2.61c-.28.28-1,.21-1.12-.11l-1.05-2.97c-.17-.48-.99-.5-1.19-.03l-1.65,3.86c-.08.19-.41.31-.74.26l-3.83-.57c-.27-.04-.46-.19-.46-.35v-2.63c0-.34-.72-.49-1.08-.23l-2.72,2.02c-.36.27-1.08.12-1.08-.23v-3.49c0-.39-.88-.51-1.16-.16l-3.3,4.15c-.19.24-.75.28-1.03.07l-7.19-5.51c-.31-.24-.94-.16-1.07.13l-1.76,3.89c-.14.31-.83.37-1.11.1l-2.14-2.06c-.29-.28-.99-.21-1.11.11l-.69,1.86c-.15.39-1.1.37-1.2-.03h0c-.08-.33-.8-.43-1.11-.15l-1.42,1.27s0,0,0,0c-.27.24-.51.5-.63.81l-3.17-1.66c-.74-.39-1.73,0-1.81.73-.27,2.53-.39,7.38-.12,7.52,0,0,48.36.21,47.93,0l.42-3.53v-1.99s-.01-.05-.01-.07Z" fill="#1f5e39"/>
    </g>
    <g>
      <path d="M411.37,719.19l-3.06-.21c-.34-.02-.48.48-.19.68l2.33,1.58c.25.17.19.6-.1.67l-2.65.63c-.43.1-.44.59-.02.72l3.44.99c.17.05.28.25.23.44l-.51,2.31c-.04.16-.17.28-.31.28h-2.35c-.31,0-.44.44-.2.65l1.81,1.63c.24.22.1.65-.2.65h-3.11c-.35,0-.45.53-.14.7l3.7,1.99c.22.12.25.45.06.62l-4.92,4.33c-.21.19-.14.56.11.64l3.48,1.06c.27.08.33.5.09.67l-1.84,1.29c-.25.17-.18.6.1.67l1.66.42c.35.09.33.66-.02.72h0c-.29.05-.38.48-.13.67l1.14.86s0,0,0,0c.21.16.45.31.72.38l-1.49,1.91c-.35.45,0,1.04.65,1.09,2.26.17,6.59.23,6.72.07,0,0,.19-29.1,0-28.84l-3.15-.25h-1.78s-.04,0-.06,0Z" fill="#1f5e39"/>
      <path d="M411.37,691.35l-3.06-.21c-.34-.02-.48.48-.19.68l2.33,1.58c.25.17.19.6-.1.67l-2.65.63c-.43.1-.44.59-.02.72l3.44.99c.17.05.28.25.23.44l-.51,2.31c-.04.16-.17.28-.31.28h-2.35c-.31,0-.44.44-.2.65l1.81,1.63c.24.22.1.65-.2.65h-3.11c-.35,0-.45.53-.14.7l3.7,1.99c.22.12.25.45.06.62l-4.92,4.33c-.21.19-.14.56.11.64l3.48,1.06c.27.08.33.5.09.67l-1.84,1.29c-.25.17-.18.6.1.67l1.66.42c.35.09.33.66-.02.72h0c-.29.05-.38.48-.13.67l1.14.86s0,0,0,0c.21.16.45.31.72.38l-1.49,1.91c-.35.45,0,1.04.65,1.09,2.26.17,6.59.23,6.72.07,0,0,.19-29.1,0-28.84l-3.15-.25h-1.78s-.04,0-.06,0Z" fill="#1f5e39"/>
    </g>
    <g>
      <path d="M588.08,722.16l3.06.21c.34.02.48-.48.19-.68l-2.33-1.58c-.25-.17-.19-.6.1-.67l2.65-.63c.43-.1.44-.59.02-.72l-3.44-.99c-.17-.05-.28-.25-.23-.44l.51-2.31c.04-.16.17-.28.31-.28h2.35c.31,0,.44-.44.2-.65l-1.81-1.63c-.24-.22-.1-.65.2-.65h3.11c.35,0,.45-.53.14-.7l-3.7-1.99c-.22-.12-.25-.45-.06-.62l4.92-4.33c.21-.19.14-.56-.11-.64l-3.48-1.06c-.27-.08-.33-.5-.09-.67l1.84-1.29c.25-.17.18-.6-.1-.67l-1.66-.42c-.35-.09-.33-.66.02-.72h0c.29-.05.38-.48.13-.67l-1.14-.86s0,0,0,0c-.21-.16-.45-.31-.72-.38l1.49-1.91c.35-.45,0-1.04-.65-1.09-2.26-.17-6.59-.23-6.72-.07,0,0-.19,29.1,0,28.84l3.15.25h1.78s.04,0,.06,0Z" fill="#1f5e39"/>
      <path d="M588.08,750l3.06.21c.34.02.48-.48.19-.68l-2.33-1.58c-.25-.17-.19-.6.1-.67l2.65-.63c.43-.1.44-.59.02-.72l-3.44-.99c-.17-.05-.28-.25-.23-.44l.51-2.31c.04-.16.17-.28.31-.28h2.35c.31,0,.44-.44.2-.65l-1.81-1.63c-.24-.22-.1-.65.2-.65h3.11c.35,0,.45-.53.14-.7l-3.7-1.99c-.22-.12-.25-.45-.06-.62l4.92-4.33c.21-.19.14-.56-.11-.64l-3.48-1.06c-.27-.08-.33-.5-.09-.67l1.84-1.29c.25-.17.18-.6-.1-.67l-1.66-.42c-.35-.09-.33-.66.02-.72h0c.29-.05.38-.48.13-.67l-1.14-.86s0,0,0,0c-.21-.16-.45-.31-.72-.38l1.49-1.91c.35-.45,0-1.04-.65-1.09-2.26-.17-6.59-.23-6.72-.07,0,0-.19,29.1,0,28.84l3.15.25h1.78s.04,0,.06,0Z" fill="#1f5e39"/>
    </g>
  </g>
  <g>
    <rect x="411.51" y="416.41" width="175.48" height="74.62" rx="16.18" ry="16.18" transform="translate(45.54 952.97) rotate(-90)" fill="#1f5e39"/>
    <path d="M537.29,526.21l4.72.35c.52.04.74-.8.29-1.13l-3.6-2.63c-.39-.28-.29-1,.15-1.12l4.1-1.06c.52-.13.53-1.03.02-1.19l-5.32-1.65c-.27-.08-.43-.41-.36-.74l.79-3.83c.06-.27.26-.46.48-.46h3.63c.47,0,.68-.72.31-1.08l-2.79-2.72c-.37-.36-.16-1.08.31-1.08h4.81c.53,0,.7-.88.21-1.16l-5.71-3.3c-.34-.19-.39-.75-.09-1.03l7.59-7.19c.33-.31.22-.94-.18-1.07l-5.36-1.76c-.42-.14-.51-.83-.13-1.11l2.84-2.14c.38-.29.28-.99-.15-1.11l-2.57-.69c-.54-.15-.51-1.1.04-1.2h0c.45-.08.59-.8.21-1.11l-1.75-1.42c-.11-.09-.18-.22-.21-.37l-5.97-1.68c-.09-.48-3.74-4.03-4.01-3.66l1.14,7.84c-.09.12-.13.27-.13.42l.96,46.45c.01.56.59.81.89.37l4.43-6.53c.1-.15.26-.23.42-.22Z" fill="#1f5e39"/>
    <path d="M538.46,432.83l3.31-.4c.37-.04.52.92.2,1.29l-2.53,3.01c-.27.33-.2,1.15.11,1.28l2.88,1.21c.36.15.37,1.17.01,1.36l-3.73,1.89c-.19.09-.3.47-.25.84l.55,4.39c.04.31.18.53.34.53h2.55c.33,0,.48.83.22,1.24l-1.96,3.11c-.26.41-.11,1.24.22,1.24h3.37c.37,0,.49,1.01.15,1.33l-4.01,3.78c-.24.22-.27.86-.06,1.18l5.33,8.23c.23.35.16,1.07-.12,1.22l-3.76,2.01c-.3.16-.35.94-.09,1.27l1.99,2.44c.27.33.2,1.14-.11,1.27l-1.8.8c-.38.17-.36,1.26.03,1.37h0c.32.09.41.91.15,1.27l-1.23,1.63c-.08.1-.13.25-.15.43l-4.19,1.92c-.06.55-2.62,4.61-2.82,4.19l.8-8.98c-.06-.13-.09-.31-.09-.48l.68-53.15c0-.64.41-.92.62-.43l3.11,7.47c.07.17.18.27.29.25Z" fill="#1f5e39"/>
    <path d="M537.58,379l3.43-.35c.38-.04.53.8.21,1.13l-2.61,2.63c-.28.28-.21,1,.11,1.12l2.97,1.05c.48.17.5.99.03,1.19l-3.86,1.65c-.19.08-.31.41-.26.74l.57,3.83c.04.27.19.46.35.46h2.63c.34,0,.49.72.23,1.08l-2.02,2.72c-.27.36-.12,1.08.23,1.08h3.49c.39,0,.51.88.16,1.16l-4.15,3.3c-.24.19-.28.75-.07,1.03l5.51,7.19c.24.31.16.94-.13,1.07l-3.89,1.76c-.31.14-.37.83-.1,1.11l2.06,2.14c.28.29.21.99-.11,1.11l-1.86.69c-.39.15-.37,1.1.03,1.2h0c.33.08.43.8.15,1.11l-1.27,1.42s0,0,0,0c-.24.27-.5.51-.81.63l1.66,3.17c.39.74,0,1.73-.73,1.81-2.53.27-7.38.39-7.52.12,0,0-.21-48.36,0-47.93l3.53-.42h1.99s.05.01.07.01Z" fill="#1f5e39"/>
    <g>
      <path d="M461.02,420.36l-3.43-.35c-.38-.04-.53.8-.21,1.13l2.61,2.63c.28.28.21,1-.11,1.12l-2.97,1.05c-.48.17-.5.99-.03,1.19l3.86,1.65c.19.08.31.41.26.74l-.57,3.83c-.04.27-.19.46-.35.46h-2.63c-.34,0-.49.72-.23,1.08l2.02,2.72c.27.36.12,1.08-.23,1.08h-3.49c-.39,0-.51.88-.16,1.16l4.15,3.3c.24.19.28.75.07,1.03l-5.51,7.19c-.24.31-.16.94.13,1.07l3.89,1.76c.31.14.37.83.1,1.11l-2.06,2.14c-.28.29-.21.99.11,1.11l1.86.69c.39.15.37,1.1-.03,1.2h0c-.33.08-.43.8-.15,1.11l1.27,1.42s0,0,0,0c.24.27.5.51.81.63l-1.66,3.17c-.39.74,0,1.73.73,1.81,2.53.27,7.38.39,7.52.12,0,0,.21-48.36,0-47.93l-3.53-.42h-1.99s-.05.01-.07.01Z" fill="#1f5e39"/>
      <path d="M461.02,374.11l-3.43-.35c-.38-.04-.53.8-.21,1.13l2.61,2.63c.28.28.21,1-.11,1.12l-2.97,1.05c-.48.17-.5.99-.03,1.19l3.86,1.65c.19.08.31.41.26.74l-.57,3.83c-.04.27-.19.46-.35.46h-2.63c-.34,0-.49.72-.23,1.08l2.02,2.72c.27.36.12,1.08-.23,1.08h-3.49c-.39,0-.51.88-.16,1.16l4.15,3.3c.24.19.28.75.07,1.03l-5.51,7.19c-.24.31-.16.94.13,1.07l3.89,1.76c.31.14.37.83.1,1.11l-2.06,2.14c-.28.29-.21.99.11,1.11l1.86.69c.39.15.37,1.1-.03,1.2h0c-.33.08-.43.8-.15,1.11l1.27,1.42s0,0,0,0c.24.27.5.51.81.63l-1.66,3.17c-.39.74,0,1.73.73,1.81,2.53.27,7.38.39,7.52.12,0,0,.21-48.36,0-47.93l-3.53-.42h-1.99s-.05.01-.07.01Z" fill="#1f5e39"/>
    </g>
    <g>
      <path d="M461.96,482.44l-3.43-.35c-.38-.04-.53.8-.21,1.13l2.61,2.63c.28.28.21,1-.11,1.12l-2.97,1.05c-.48.17-.5.99-.03,1.19l3.86,1.65c.19.08.31.41.26.74l-.57,3.83c-.04.27-.19.46-.35.46h-2.63c-.34,0-.49.72-.23,1.08l2.02,2.72c.27.36.12,1.08-.23,1.08h-3.49c-.39,0-.51.88-.16,1.16l4.15,3.3c.24.19.28.75.07,1.03l-5.51,7.19c-.24.31-.16.94.13,1.07l3.89,1.76c.31.14.37.83.1,1.11l-2.06,2.14c-.28.29-.21.99.11,1.11l1.86.69c.39.15.37,1.1-.03,1.2h0c-.33.08-.43.8-.15,1.11l1.27,1.42s0,0,0,0c.24.27.5.51.81.63l-1.66,3.17c-.39.74,0,1.73.73,1.81,2.53.27,7.38.39,7.52.12,0,0,.21-48.36,0-47.93l-3.53-.42h-1.99s-.05.01-.07.01Z" fill="#1f5e39"/>
      <path d="M461.96,436.18l-3.43-.35c-.38-.04-.53.8-.21,1.13l2.61,2.63c.28.28.21,1-.11,1.12l-2.97,1.05c-.48.17-.5.99-.03,1.19l3.86,1.65c.19.08.31.41.26.74l-.57,3.83c-.04.27-.19.46-.35.46h-2.63c-.34,0-.49.72-.23,1.08l2.02,2.72c.27.36.12,1.08-.23,1.08h-3.49c-.39,0-.51.88-.16,1.16l4.15,3.3c.24.19.28.75.07,1.03l-5.51,7.19c-.24.31-.16.94.13,1.07l3.89,1.76c.31.14.37.83.1,1.11l-2.06,2.14c-.28.29-.21.99.11,1.11l1.86.69c.39.15.37,1.1-.03,1.2h0c-.33.08-.43.8-.15,1.11l1.27,1.42s0,0,0,0c.24.27.5.51.81.63l-1.66,3.17c-.39.74,0,1.73.73,1.81,2.53.27,7.38.39,7.52.12,0,0,.21-48.36,0-47.93l-3.53-.42h-1.99s-.05.01-.07.01Z" fill="#1f5e39"/>
    </g>
    <g>
      <path d="M498.07,541.55l-.21,3.06c-.02.34.48.48.68.19l1.58-2.33c.17-.25.6-.19.67.1l.63,2.65c.1.43.59.44.72.02l.99-3.44c.05-.17.25-.28.44-.23l2.31.51c.16.04.28.17.28.31v2.35c0,.31.44.44.65.2l1.63-1.81c.22-.24.65-.1.65.2v3.11c0,.35.53.45.7.14l1.99-3.7c.12-.22.45-.25.62-.06l4.33,4.92c.19.21.56.14.64-.11l1.06-3.48c.08-.27.5-.33.67-.09l1.29,1.84c.17.25.6.18.67-.1l.42-1.66c.09-.35.66-.33.72.02h0c.05.29.48.38.67.13l.86-1.14s0,0,0,0c.16-.21.31-.45.38-.72l1.91,1.49c.45.35,1.04,0,1.09-.65.17-2.26.23-6.59.07-6.72,0,0-29.1-.19-28.84,0l-.25,3.15v1.78s0,.04,0,.06Z" fill="#1f5e39"/>
      <path d="M470.24,541.55l-.21,3.06c-.02.34.48.48.68.19l1.58-2.33c.17-.25.6-.19.67.1l.63,2.65c.1.43.59.44.72.02l.99-3.44c.05-.17.25-.28.44-.23l2.31.51c.16.04.28.17.28.31v2.35c0,.31.44.44.65.2l1.63-1.81c.22-.24.65-.1.65.2v3.11c0,.35.53.45.7.14l1.99-3.7c.12-.22.45-.25.62-.06l4.33,4.92c.19.21.56.14.64-.11l1.06-3.48c.08-.27.5-.33.67-.09l1.29,1.84c.17.25.6.18.67-.1l.42-1.66c.09-.35.66-.33.72.02h0c.05.29.48.38.67.13l.86-1.14s0,0,0,0c.16-.21.31-.45.38-.72l1.91,1.49c.45.35,1.04,0,1.09-.65.17-2.26.23-6.59.07-6.72,0,0-29.1-.19-28.84,0l-.25,3.15v1.78s0,.04,0,.06Z" fill="#1f5e39"/>
    </g>
    <g>
      <path d="M501.04,364.84l.21-3.06c.02-.34-.48-.48-.68-.19l-1.58,2.33c-.17.25-.6.19-.67-.1l-.63-2.65c-.1-.43-.59-.44-.72-.02l-.99,3.44c-.05.17-.25.28-.44.23l-2.31-.51c-.16-.04-.28-.17-.28-.31v-2.35c0-.31-.44-.44-.65-.2l-1.63,1.81c-.22.24-.65.1-.65-.2v-3.11c0-.35-.53-.45-.7-.14l-1.99,3.7c-.12.22-.45.25-.62.06l-4.33-4.92c-.19-.21-.56-.14-.64.11l-1.06,3.48c-.08.27-.5.33-.67.09l-1.29-1.84c-.17-.25-.6-.18-.67.1l-.42,1.66c-.09.35-.66.33-.72-.02h0c-.05-.29-.48-.38-.67-.13l-.86,1.14s0,0,0,0c-.16.21-.31.45-.38.72l-1.91-1.49c-.45-.35-1.04,0-1.09.65-.17,2.26-.23,6.59-.07,6.72,0,0,29.1.19,28.84,0l.25-3.15v-1.78s0-.04,0-.06Z" fill="#1f5e39"/>
      <path d="M528.88,364.84l.21-3.06c.02-.34-.48-.48-.68-.19l-1.58,2.33c-.17.25-.6.19-.67-.1l-.63-2.65c-.1-.43-.59-.44-.72-.02l-.99,3.44c-.05.17-.25.28-.44.23l-2.31-.51c-.16-.04-.28-.17-.28-.31v-2.35c0-.31-.44-.44-.65-.2l-1.63,1.81c-.22.24-.65.1-.65-.2v-3.11c0-.35-.53-.45-.7-.14l-1.99,3.7c-.12.22-.45.25-.62.06l-4.33-4.92c-.19-.21-.56-.14-.64.11l-1.06,3.48c-.08.27-.5.33-.67.09l-1.29-1.84c-.17-.25-.6-.18-.67.1l-.42,1.66c-.09.35-.66.33-.72-.02h0c-.05-.29-.48-.38-.67-.13l-.86,1.14s0,0,0,0c-.16.21-.31.45-.38.72l-1.91-1.49c-.45-.35-1.04,0-1.09.65-.17,2.26-.23,6.59-.07,6.72,0,0,29.1.19,28.84,0l.25-3.15v-1.78s0-.04,0-.06Z" fill="#1f5e39"/>
    </g>
  </g>
  <g>
    <g>
      <g>
        <g>
          <polygon points="135.99 780.64 221.81 866.46 221.81 780.64 135.99 780.64" fill="#1f5e39"/>
          <rect x="135.99" y="694.81" width="85.83" height="85.83" fill="#1f5e39"/>
        </g>
        <rect x="221.81" y="780.64" width="85.83" height="85.83" fill="#1f5e39"/>
      </g>
      <polygon points="307.64 780.64 221.81 694.81 221.81 780.64 307.64 780.64" fill="#1f5e39"/>
    </g>
    <path d="M259.49,731.19l4.46-5.19c.49-.57,1.58.08,1.46.88l-.96,6.4c-.1.69.74,1.34,1.31,1l5.29-3.1c.67-.39,1.61.52,1.25,1.21l-3.73,7.14c-.19.36-.01.87.39,1.13l4.78,3.17c.34.22.74.22.97-.02l3.71-3.71c.48-.48,1.45.05,1.44.8l-.04,5.66c0,.75.96,1.29,1.44.8l4.91-4.91c.54-.54,1.62.2,1.42.98l-2.42,9.26c-.14.55.38,1.17.97,1.16l15.21-.31c.65-.01,1.2.74.93,1.29l-3.66,7.3c-.29.58.34,1.37,1.01,1.28l5.12-.69c.69-.09,1.32.74.99,1.31l-1.9,3.34c-.4.71.62,1.66,1.28,1.2h0c.55-.38,1.43.23,1.36.94l-4.51,11.71c.41.59.35,8-.31,7.89l-6.96-9.28c-.21-.03-.41-.14-.57-.31l-47.12-49.09c-.57-.59-.23-1.44.52-1.29l11.29,2.24c.26.05.5-.02.65-.2Z" fill="#1f5e39"/>
    <path d="M229.08,698.79l2.76-3.29c.31-.36,1.07.13,1.03.66l-.34,4.28c-.04.46.57.94.94.74l3.42-1.84c.43-.23,1.11.43.9.88l-2.17,4.64c-.11.23.03.58.32.78l3.38,2.37c.24.17.51.18.66.03l2.33-2.33c.3-.3.98.11,1.01.61l.25,3.82c.03.51.71.92,1.01.61l3.08-3.08c.34-.34,1.11.21,1.01.73l-1.19,6.14c-.07.36.32.81.71.83l10.26.52c.44.02.84.56.69.91l-2.12,4.76c-.17.38.29.94.74.91l3.42-.22c.46-.03.93.56.73.93l-1.13,2.17c-.24.46.5,1.15.92.87h0c.35-.23.98.22.96.7l-.06,2.19c0,.13.05.28.15.42l-2.57,5.09c.31.42.62,5.42.17,5.32l-5.15-6.61c-.14-.03-.28-.12-.4-.23l-34.19-35.43c-.41-.43-.23-.98.29-.85l7.73,2.05c.18.05.34,0,.43-.1Z" fill="#1f5e39"/>
    <path d="M183.71,828.49l-4.46,5.19c-.49.57-1.58-.08-1.46-.88l.96-6.4c.1-.69-.74-1.34-1.31-1l-5.29,3.1c-.67.39-1.61-.52-1.25-1.21l3.73-7.14c.19-.36.01-.87-.39-1.13l-4.78-3.17c-.34-.22-.74-.22-.97.02l-3.71,3.71c-.48.48-1.45-.05-1.44-.8l.04-5.66c0-.75-.96-1.29-1.44-.8l-4.91,4.91c-.54.54-1.62-.2-1.42-.98l2.42-9.26c.14-.55-.38-1.17-.97-1.16l-15.21.31c-.65.01-1.2-.74-.93-1.29l3.66-7.3c.29-.58-.34-1.37-1.01-1.28l-5.12.69c-.69.09-1.32-.74-.99-1.31l1.9-3.34c.4-.71-.62-1.66-1.28-1.2h0c-.55.38-1.43-.23-1.36-.94l4.51-11.71c-.41-.59-.35-8,.31-7.89l6.96,9.28c.21.03.41.14.57.31l47.12,49.09c.57.59.23,1.44-.52,1.29l-11.29-2.24c-.26-.05-.5.02-.65.2Z" fill="#1f5e39"/>
    <path d="M214.13,860.88l-2.76,3.29c-.31.36-1.07-.13-1.03-.66l.34-4.28c.04-.46-.57-.94-.94-.74l-3.42,1.84c-.43.23-1.11-.43-.9-.88l2.17-4.64c.11-.23-.03-.58-.32-.78l-3.38-2.37c-.24-.17-.51-.18-.66-.03l-2.33,2.33c-.3.3-.98-.11-1.01-.61l-.25-3.82c-.03-.51-.71-.92-1.01-.61l-3.08,3.08c-.34.34-1.11-.21-1.01-.73l1.19-6.14c.07-.36-.32-.81-.71-.83l-10.26-.52c-.44-.02-.84-.56-.69-.91l2.12-4.76c.17-.38-.29-.94-.74-.91l-3.42.22c-.46.03-.93-.56-.73-.93l1.13-2.17c.24-.46-.5-1.15-.92-.87h0c-.35.23-.98-.22-.96-.7l.06-2.19c0-.13-.05-.28-.15-.42l2.57-5.09c-.31-.42-.62-5.42-.17-5.32l5.15,6.61c.14.03.28.12.4.23l34.19,35.43c.41.43.23.98-.29.85l-7.73-2.05c-.18-.05-.34,0-.43.1Z" fill="#1f5e39"/>
    <path d="M132.34,770.42l-3.68.52c-.41.06-.57-1.19-.22-1.68l2.81-3.91c.3-.42.23-1.49-.12-1.66l-3.2-1.57c-.4-.2-.42-1.52-.02-1.76l4.15-2.45c.21-.12.33-.61.28-1.1l-.61-5.69c-.04-.4-.2-.68-.38-.68h-2.83c-.37,0-.53-1.08-.24-1.61l2.17-4.03c.29-.53.13-1.61-.24-1.61h-3.75c-.42,0-.54-1.31-.17-1.72l4.46-4.9c.26-.29.3-1.12.07-1.53l-5.92-10.67c-.25-.46-.17-1.39.14-1.59l4.18-2.61c.33-.21.39-1.23.1-1.64l-2.22-3.17c-.3-.43-.22-1.48.12-1.65l2-1.03c.42-.22.4-1.63-.03-1.78h0c-.35-.12-.46-1.19-.16-1.65l6.19-5.16c.07-.72,2.92-5.98,3.13-5.44l-.89,11.64c.07.17.1.4.1.63l-.75,68.96c0,.84-.46,1.2-.69.55l-3.46-9.69c-.08-.22-.2-.34-.32-.33Z" fill="#1f5e39"/>
    <path d="M295.93,867.61l.52,3.68c.06.41-1.19.57-1.68.22l-3.91-2.81c-.42-.3-1.49-.23-1.66.12l-1.57,3.2c-.2.4-1.52.42-1.76.02l-2.45-4.15c-.12-.21-.61-.33-1.1-.28l-5.69.61c-.4.04-.68.2-.68.38v2.83c0,.37-1.08.53-1.61.24l-4.03-2.17c-.53-.29-1.61-.13-1.61.24v3.75c0,.42-1.31.54-1.72.17l-4.9-4.46c-.29-.26-1.12-.3-1.53-.07l-10.67,5.92c-.46.25-1.39.17-1.59-.14l-2.61-4.18c-.21-.33-1.23-.39-1.64-.1l-3.17,2.22c-.43.3-1.48.22-1.65-.12l-1.03-2c-.22-.42-1.63-.4-1.78.03h0c-.12.35-1.19.46-1.65.16l-5.16-6.19c-.72-.07-5.98-2.92-5.44-3.13l11.64.89c.17-.07.4-.1.63-.1l68.96.75c.84,0,1.2.46.55.69l-9.69,3.46c-.22.08-.34.2-.33.32Z" fill="#1f5e39"/>
    <path d="M146.63,691.72l-.54-3.78c-.06-.42,1.22-.59,1.72-.23l4,2.88c.43.31,1.53.23,1.7-.12l1.61-3.28c.2-.41,1.56-.43,1.8-.02l2.51,4.25c.13.21.63.34,1.12.29l5.84-.63c.41-.04.7-.2.7-.39v-2.9c0-.38,1.1-.55,1.65-.25l4.13,2.23c.55.3,1.65.13,1.65-.25v-3.85c0-.43,1.34-.56,1.76-.17l5.03,4.57c.3.27,1.15.31,1.57.07l10.95-6.07c.47-.26,1.43-.18,1.63.14l2.68,4.29c.21.34,1.26.4,1.68.11l3.25-2.27c.44-.31,1.51-.23,1.69.12l1.06,2.05c.22.43,1.68.41,1.82-.03h0c.12-.36,1.22-.47,1.69-.17l5.29,6.35c.74.07,6.14,2.99,5.58,3.21l-11.94-.91c-.18.07-.41.1-.64.1l-70.71-.77c-.86,0-1.23-.47-.57-.71l9.94-3.54c.23-.08.35-.21.33-.33Z" fill="#1f5e39"/>
    <path d="M311.49,788.39l3.78-.54c.42-.06.59,1.22.23,1.72l-2.88,4c-.31.43-.23,1.53.12,1.7l3.28,1.61c.41.2.43,1.56.02,1.8l-4.25,2.51c-.21.13-.34.63-.29,1.12l.63,5.84c.04.41.2.7.39.7h2.9c.38,0,.55,1.1.25,1.65l-2.23,4.13c-.3.55-.13,1.65.25,1.65h3.85c.43,0,.56,1.34.17,1.76l-4.57,5.03c-.27.3-.31,1.15-.07,1.57l6.07,10.95c.26.47.18,1.43-.14,1.63l-4.29,2.68c-.34.21-.4,1.26-.11,1.68l2.27,3.25c.31.44.23,1.51-.12,1.69l-2.05,1.06c-.43.22-.41,1.68.03,1.82h0c.36.12.47,1.22.17,1.69l-6.35,5.29c-.07.74-2.99,6.14-3.21,5.58l.91-11.94c-.07-.18-.1-.41-.1-.64l.77-70.71c0-.86.47-1.23.71-.57l3.54,9.94c.08.23.21.35.33.33Z" fill="#1f5e39"/>
  </g>
  <g>
    <rect x="693.61" y="399.73" width="175.48" height="74.62" rx="16.18" ry="16.18" transform="translate(499.15 -412.59) rotate(42.41)" fill="#1f5e39"/>
    <path d="M702.17,416.24l-3.44,3.25c-.38.36.1,1.08.64.97l4.37-.88c.47-.1.94.46.72.87l-1.99,3.74c-.25.47.4,1.09.86.81l4.8-2.81c.24-.14.59-.04.79.23l2.3,3.17c.16.22.17.5.01.67l-2.45,2.68c-.32.35.08.99.59.96l3.88-.23c.51-.03.91.61.59.96l-3.24,3.55c-.36.39.18,1.11.71.94l6.29-1.99c.37-.12.82.22.82.63l.19,10.45c0,.45.54.8.91.59l4.91-2.77c.39-.22.95.18.91.65l-.34,3.54c-.05.48.54.88.93.64l2.24-1.43c.47-.3,1.16.36.86.84h0c-.25.39.19.97.68.9l2.23-.33c.14-.02.29.01.42.1l5.27-3.28c.42.26,5.5-.04,5.41-.49l-6.56-4.45c-.03-.14-.11-.28-.23-.38l-34.95-30.61c-.42-.37-.99-.11-.87.4l1.83,7.67c.04.18,0,.35-.12.46Z" fill="#1f5e39"/>
    <path d="M770.33,480.08l-1.94,2.72c-.21.3-1.03-.24-1.09-.72l-.52-3.9c-.06-.42-.71-.92-1.02-.78l-2.84,1.31c-.36.17-1.12-.52-1.01-.9l1.12-4.03c.06-.2-.15-.54-.45-.76l-3.61-2.55c-.26-.18-.51-.22-.62-.1l-1.72,1.88c-.22.24-.93-.21-1.06-.67l-.98-3.54c-.13-.47-.84-.92-1.06-.67l-2.28,2.49c-.25.28-1.07-.32-1.08-.78l-.09-5.51c0-.32-.45-.78-.83-.84l-9.67-1.61c-.41-.07-.9-.61-.82-.92l1.05-4.14c.08-.33-.46-.9-.87-.92l-3.15-.18c-.42-.02-.97-.62-.87-.94l.63-1.87c.13-.39-.69-1.12-1.03-.9h0c-.28.17-.95-.31-1.04-.75l-.37-2.01c-.02-.12-.1-.27-.22-.4l1.41-4.39c-.37-.42-1.64-5.05-1.2-4.91l6.09,6.64c.14.05.29.14.42.26l38.79,36.35c.47.44.4.93-.1.75l-7.61-2.74c-.18-.06-.32-.05-.38.05Z" fill="#1f5e39"/>
    <path d="M810.66,515.73l-2.05,2.77c-.23.31-.95-.15-.98-.61l-.18-3.7c-.02-.4-.6-.83-.9-.67l-2.78,1.48c-.45.24-1.07-.3-.9-.78l1.39-3.96c.07-.2-.09-.51-.37-.69l-3.22-2.16c-.23-.15-.47-.17-.58-.05l-1.78,1.94c-.23.25-.87-.12-.95-.56l-.64-3.33c-.08-.44-.72-.82-.95-.56l-2.35,2.58c-.26.29-.99-.22-.96-.67l.36-5.29c.02-.31-.37-.71-.72-.74l-9.03-.78c-.39-.03-.8-.51-.7-.82l1.33-4.06c.1-.32-.36-.83-.75-.82l-2.97.08c-.4.01-.87-.52-.75-.83l.74-1.84c.16-.39-.56-1.02-.9-.79h0c-.28.19-.88-.22-.92-.64l-.19-1.9s0,0,0,0c-.04-.36-.04-.71.08-1.02l-3.46-.91c-.81-.21-1.27-1.17-.84-1.75,1.5-2.05,4.69-5.71,4.99-5.63,0,0,35.85,32.46,35.39,32.32l-2.07,2.89-1.35,1.47s-.04.03-.05.05Z" fill="#1f5e39"/>
    <g>
      <path d="M831.76,431.3l2.57-2.29c.28-.25-.23-.94-.69-.92l-3.71.16c-.4.02-.88-.52-.75-.84l1.22-2.9c.2-.47-.39-1.03-.86-.82l-3.82,1.74c-.19.09-.51-.05-.72-.3l-2.45-3.01c-.17-.21-.22-.45-.1-.57l1.78-1.94c.23-.25-.2-.85-.65-.9l-3.37-.34c-.45-.04-.88-.65-.65-.9l2.35-2.58c.26-.29-.31-.97-.75-.9l-5.23.84c-.31.05-.74-.3-.81-.65l-1.59-8.92c-.07-.38-.58-.75-.88-.63l-3.92,1.69c-.31.13-.86-.29-.88-.67l-.19-2.96c-.03-.4-.59-.82-.9-.67l-1.77.91c-.37.19-1.06-.47-.87-.83h0c.16-.3-.3-.85-.72-.86l-1.91-.02s0,0,0,0c-.36,0-.71.03-1.01.18l-1.22-3.36c-.29-.79-1.28-1.16-1.82-.68-1.91,1.68-5.26,5.19-5.16,5.48,0,0,35.56,32.77,35.39,32.32l2.69-2.32,1.34-1.47s.03-.04.04-.05Z" fill="#1f5e39"/>
      <path d="M865.91,462.5l2.57-2.29c.28-.25-.23-.94-.69-.92l-3.71.16c-.4.02-.88-.52-.75-.84l1.22-2.9c.2-.47-.39-1.03-.86-.82l-3.82,1.74c-.19.09-.51-.05-.72-.3l-2.45-3.01c-.17-.21-.22-.45-.1-.57l1.78-1.94c.23-.25-.2-.85-.65-.9l-3.37-.34c-.45-.04-.88-.65-.65-.9l2.35-2.58c.26-.29-.31-.97-.75-.9l-5.23.84c-.31.05-.74-.3-.81-.65l-1.59-8.92c-.07-.38-.58-.75-.88-.63l-3.92,1.69c-.31.13-.86-.29-.88-.67l-.19-2.96c-.03-.4-.59-.82-.9-.67l-1.77.91c-.37.19-1.06-.47-.87-.83h0c.16-.3-.3-.85-.72-.86l-1.91-.02s0,0,0,0c-.36,0-.71.03-1.01.18l-1.22-3.36c-.29-.79-1.28-1.16-1.82-.68-1.91,1.68-5.26,5.19-5.16,5.48,0,0,35.56,32.77,35.39,32.32l2.69-2.32,1.34-1.47s.03-.04.04-.05Z" fill="#1f5e39"/>
    </g>
    <g>
      <path d="M785.29,390.14l2.57-2.29c.28-.25-.23-.94-.69-.92l-3.71.16c-.4.02-.88-.52-.75-.84l1.22-2.9c.2-.47-.39-1.03-.86-.82l-3.82,1.74c-.19.09-.51-.05-.72-.3l-2.45-3.01c-.17-.21-.22-.45-.1-.57l1.78-1.94c.23-.25-.2-.85-.65-.9l-3.37-.34c-.45-.04-.88-.65-.65-.9l2.35-2.58c.26-.29-.31-.97-.75-.9l-5.23.84c-.31.05-.74-.3-.81-.65l-1.59-8.92c-.07-.38-.58-.75-.88-.63l-3.92,1.69c-.31.13-.86-.29-.88-.67l-.19-2.96c-.03-.4-.59-.82-.9-.67l-1.77.91c-.37.19-1.06-.47-.87-.83h0c.16-.3-.3-.85-.72-.86l-1.91-.02s0,0,0,0c-.36,0-.71.03-1.01.18l-1.22-3.36c-.29-.79-1.28-1.16-1.82-.68-1.91,1.68-5.26,5.19-5.16,5.48,0,0,35.56,32.77,35.39,32.32l2.69-2.32,1.34-1.47s.03-.04.04-.05Z" fill="#1f5e39"/>
      <path d="M819.44,421.33l2.57-2.29c.28-.25-.23-.94-.69-.92l-3.71.16c-.4.02-.88-.52-.75-.84l1.22-2.9c.2-.47-.39-1.03-.86-.82l-3.82,1.74c-.19.09-.51-.05-.72-.3l-2.45-3.01c-.17-.21-.22-.45-.1-.57l1.78-1.94c.23-.25-.2-.85-.65-.9l-3.37-.34c-.45-.04-.88-.65-.65-.9l2.35-2.58c.26-.29-.31-.97-.75-.9l-5.23.84c-.31.05-.74-.3-.81-.65l-1.59-8.92c-.07-.38-.58-.75-.88-.63l-3.92,1.69c-.31.13-.86-.29-.88-.67l-.19-2.96c-.03-.4-.59-.82-.9-.67l-1.77.91c-.37.19-1.06-.47-.87-.83h0c.16-.3-.3-.85-.72-.86l-1.91-.02s0,0,0,0c-.36,0-.71.03-1.01.18l-1.22-3.36c-.29-.79-1.28-1.16-1.82-.68-1.91,1.68-5.26,5.19-5.16,5.48,0,0,35.56,32.77,35.39,32.32l2.69-2.32,1.34-1.47s.03-.04.04-.05Z" fill="#1f5e39"/>
    </g>
    <g>
      <path d="M717.29,376.94l-2.12-2.22c-.23-.25-.68.03-.6.38l.66,2.74c.07.3-.27.57-.53.43l-2.38-1.32c-.38-.21-.73.14-.5.51l1.87,3.06c.09.15.04.37-.13.49l-1.93,1.36c-.14.1-.31.09-.42,0l-1.74-1.59c-.23-.21-.62.02-.59.35l.23,2.42c.03.32-.36.55-.59.35l-2.3-2.1c-.26-.23-.69.09-.57.42l1.39,3.96c.08.23-.12.5-.37.5l-6.55-.12c-.28,0-.49.32-.35.55l1.85,3.12c.15.25-.09.59-.39.55l-2.23-.29c-.3-.04-.54.32-.38.56l.95,1.43c.2.3-.2.71-.5.52h0c-.25-.16-.61.1-.55.4l.26,1.4s0,0,0,0c.05.26.12.53.28.77l-2.38.41c-.56.1-.7.77-.25,1.24,1.55,1.64,4.7,4.61,4.91,4.58,0,0,19.77-21.36,19.45-21.3l-2.16-2.31-1.32-1.2s-.03-.02-.05-.04Z" fill="#1f5e39"/>
      <path d="M736.06,356.39l-2.12-2.22c-.23-.25-.68.03-.6.38l.66,2.74c.07.3-.27.57-.53.43l-2.38-1.32c-.38-.21-.73.14-.5.51l1.87,3.06c.09.15.04.37-.13.49l-1.93,1.36c-.14.1-.31.09-.42,0l-1.74-1.59c-.23-.21-.62.02-.59.35l.23,2.42c.03.32-.36.55-.59.35l-2.3-2.1c-.26-.23-.69.09-.57.42l1.39,3.96c.08.23-.12.5-.37.5l-6.55-.12c-.28,0-.49.32-.35.55l1.85,3.12c.15.25-.09.59-.39.55l-2.23-.29c-.3-.04-.54.32-.38.56l.95,1.43c.2.3-.2.71-.5.52h0c-.25-.16-.61.1-.55.4l.26,1.4s0,0,0,0c.05.26.12.53.28.77l-2.38.41c-.56.1-.7.77-.25,1.24,1.55,1.64,4.7,4.61,4.91,4.58,0,0,19.77-21.36,19.45-21.3l-2.16-2.31-1.32-1.2s-.03-.02-.05-.04Z" fill="#1f5e39"/>
    </g>
    <g>
      <path d="M845.77,498.3l2.12,2.22c.23.25.68-.03.6-.38l-.66-2.74c-.07-.3.27-.57.53-.43l2.38,1.32c.38.21.73-.14.5-.51l-1.87-3.06c-.09-.15-.04-.37.13-.49l1.93-1.36c.14-.1.31-.09.42,0l1.74,1.59c.23.21.62-.02.59-.35l-.23-2.42c-.03-.32.36-.55.59-.35l2.3,2.1c.26.23.69-.09.57-.42l-1.39-3.96c-.08-.23.12-.5.37-.5l6.55.12c.28,0,.49-.32.35-.55l-1.85-3.12c-.15-.25.09-.59.39-.55l2.23.29c.3.04.54-.32.38-.56l-.95-1.43c-.2-.3.2-.71.5-.52h0c.25.16.61-.1.55-.4l-.26-1.4s0,0,0,0c-.05-.26-.12-.53-.28-.77l2.38-.41c.56-.1.7-.77.25-1.24-1.55-1.64-4.7-4.61-4.91-4.58,0,0-19.77,21.36-19.45,21.3l2.16,2.31,1.32,1.2s.03.02.05.04Z" fill="#1f5e39"/>
      <path d="M826.99,518.86l2.12,2.22c.23.25.68-.03.6-.38l-.66-2.74c-.07-.3.27-.57.53-.43l2.38,1.32c.38.21.73-.14.5-.51l-1.87-3.06c-.09-.15-.04-.37.13-.49l1.93-1.36c.14-.1.31-.09.42,0l1.74,1.59c.23.21.62-.02.59-.35l-.23-2.42c-.03-.32.36-.55.59-.35l2.3,2.1c.26.23.69-.09.57-.42l-1.39-3.96c-.08-.23.12-.5.37-.5l6.55.12c.28,0,.49-.32.35-.55l-1.85-3.12c-.15-.25.09-.59.39-.55l2.23.29c.3.04.54-.32.38-.56l-.95-1.43c-.2-.3.2-.71.5-.52h0c.25.16.61-.1.55-.4l-.26-1.4s0,0,0,0c-.05-.26-.12-.53-.28-.77l2.38-.41c.56-.1.7-.77.25-1.24-1.55-1.64-4.7-4.61-4.91-4.58,0,0-19.77,21.36-19.45,21.3l2.16,2.31,1.32,1.2s.03.02.05.04Z" fill="#1f5e39"/>
    </g>
  </g>
  <g>
    <rect x="138.21" y="403.23" width="175.48" height="74.62" rx="16.18" ry="16.18" transform="translate(707.69 554.81) rotate(130.5)" fill="#1f5e39"/>
    <path d="M244.1,360.71l-3.36-3.33c-.37-.37-1.08.13-.95.67l1.03,4.34c.11.47-.43.95-.84.75l-3.81-1.86c-.48-.23-1.07.43-.79.89l2.97,4.7c.15.24.06.59-.2.8l-3.09,2.41c-.22.17-.49.18-.67.04l-2.76-2.36c-.36-.31-.99.11-.94.62l.36,3.88c.05.51-.58.93-.94.62l-3.65-3.12c-.41-.35-1.1.22-.92.74l2.2,6.22c.13.37-.19.82-.6.84l-10.44.54c-.45.02-.78.57-.56.93l2.94,4.82c.23.38-.15.96-.62.93l-3.55-.22c-.48-.03-.86.57-.61.95l1.5,2.2c.32.46-.33,1.17-.81.89h0c-.4-.23-.97.23-.88.71l.41,2.22c.03.14,0,.29-.08.42l3.45,5.16c-.25.42.22,5.49.67,5.39l4.23-6.7c.14-.03.27-.12.37-.24l29.43-35.95c.36-.44.07-1-.43-.86l-7.61,2.09c-.17.05-.35,0-.46-.1Z" fill="#1f5e39"/>
    <path d="M182.57,430.95l-2.78-1.85c-.31-.2.2-1.03.69-1.11l3.88-.65c.42-.07.9-.74.75-1.04l-1.4-2.79c-.18-.35.48-1.14.87-1.04l4.06.99c.2.05.54-.16.74-.48l2.43-3.7c.17-.26.21-.52.08-.62l-1.94-1.65c-.25-.22.17-.94.64-1.09l3.51-1.09c.46-.14.89-.87.64-1.09l-2.57-2.19c-.28-.24.28-1.08.75-1.11l5.5-.27c.32-.02.77-.48.82-.85l1.29-9.72c.06-.42.58-.92.89-.85l4.17.91c.33.07.88-.49.89-.9l.07-3.15c0-.42.59-.99.91-.9l1.89.57c.4.12,1.09-.72.87-1.06h0c-.18-.28.28-.96.71-1.06l1.99-.44c.12-.03.26-.11.39-.23l4.44,1.26c.41-.38,4.99-1.8,4.86-1.36l-6.44,6.31c-.04.14-.13.29-.25.43l-35.03,39.98c-.42.48-.91.43-.75-.08l2.49-7.7c.06-.18.04-.32-.06-.38Z" fill="#1f5e39"/>
    <path d="M148.28,472.46l-2.84-1.96c-.31-.22.11-.96.57-.99l3.7-.3c.4-.03.81-.63.64-.92l-1.57-2.73c-.25-.44.26-1.07.75-.92l4,1.25c.2.06.5-.11.68-.39l2.06-3.29c.15-.23.16-.47.03-.58l-2-1.71c-.26-.22.09-.87.53-.97l3.3-.75c.44-.1.79-.75.53-.97l-2.65-2.27c-.29-.25.19-1,.63-.98l5.3.18c.31.01.7-.39.72-.74l.48-9.05c.02-.39.49-.82.79-.73l4.1,1.19c.32.09.82-.39.79-.78l-.18-2.96c-.02-.4.49-.89.81-.77l1.87.68c.4.14,1-.6.76-.93h0c-.2-.27.19-.89.61-.94l1.89-.26s0,0,0,0c.36-.05.71-.06,1.02.05l.79-3.49c.19-.82,1.12-1.31,1.73-.9,2.1,1.43,5.86,4.5,5.8,4.8,0,0-31.24,36.91-31.12,36.45l-2.96-1.97-1.51-1.3s-.03-.03-.05-.05Z" fill="#1f5e39"/>
    <g>
      <path d="M233.37,490.73l2.38,2.49c.26.28.93-.26.89-.72l-.28-3.7c-.03-.4.49-.9.81-.78l2.94,1.13c.47.18,1.02-.43.79-.89l-1.86-3.76c-.09-.19.03-.52.28-.73l2.93-2.55c.21-.18.44-.23.57-.12l2,1.71c.26.22.85-.23.88-.68l.22-3.38c.03-.45.62-.9.88-.68l2.65,2.27c.29.25.96-.34.87-.78l-1.01-5.2c-.06-.31.28-.75.62-.83l8.86-1.89c.38-.08.73-.61.6-.9l-1.82-3.87c-.14-.3.26-.87.64-.9l2.95-.29c.4-.04.8-.62.64-.92l-.97-1.74c-.2-.37.43-1.08.8-.89h0c.3.15.84-.33.83-.75l-.04-1.91s0,0,0,0c0-.36-.05-.71-.21-1l3.32-1.33c.78-.31,1.12-1.32.62-1.85-1.74-1.85-5.36-5.09-5.65-4.97,0,0-31.57,36.64-31.12,36.45l2.41,2.61,1.52,1.29s.04.02.05.04Z" fill="#1f5e39"/>
      <path d="M203.33,525.9l2.38,2.49c.26.28.93-.26.89-.72l-.28-3.7c-.03-.4.49-.9.81-.78l2.94,1.13c.47.18,1.02-.43.79-.89l-1.86-3.76c-.09-.19.03-.52.28-.73l2.93-2.55c.21-.18.44-.23.57-.12l2,1.71c.26.22.85-.23.88-.68l.22-3.38c.03-.45.62-.9.88-.68l2.65,2.27c.29.25.96-.34.87-.78l-1.01-5.2c-.06-.31.28-.75.62-.83l8.86-1.89c.38-.08.73-.61.6-.9l-1.82-3.87c-.14-.3.26-.87.64-.9l2.95-.29c.4-.04.8-.62.64-.92l-.97-1.74c-.2-.37.43-1.08.8-.89h0c.3.15.84-.33.83-.75l-.04-1.91s0,0,0,0c0-.36-.05-.71-.21-1l3.32-1.33c.78-.31,1.12-1.32.62-1.85-1.74-1.85-5.36-5.09-5.65-4.97,0,0-31.57,36.64-31.12,36.45l2.41,2.61,1.52,1.29s.04.02.05.04Z" fill="#1f5e39"/>
    </g>
    <g>
      <path d="M272.96,442.91l2.38,2.49c.26.28.93-.26.89-.72l-.28-3.7c-.03-.4.49-.9.81-.78l2.94,1.13c.47.18,1.02-.43.79-.89l-1.86-3.76c-.09-.19.03-.52.28-.73l2.93-2.55c.21-.18.44-.23.57-.12l2,1.71c.26.22.85-.23.88-.68l.22-3.38c.03-.45.62-.9.88-.68l2.65,2.27c.29.25.96-.34.87-.78l-1.01-5.2c-.06-.31.28-.75.62-.83l8.86-1.89c.38-.08.73-.61.6-.9l-1.82-3.87c-.14-.3.26-.87.64-.9l2.95-.29c.4-.04.8-.62.64-.92l-.97-1.74c-.2-.37.43-1.08.8-.89h0c.3.15.84-.33.83-.75l-.04-1.91s0,0,0,0c0-.36-.05-.71-.21-1l3.32-1.33c.78-.31,1.12-1.32.62-1.85-1.74-1.85-5.36-5.09-5.65-4.97,0,0-31.57,36.64-31.12,36.45l2.41,2.61,1.52,1.29s.04.02.05.04Z" fill="#1f5e39"/>
      <path d="M242.92,478.08l2.38,2.49c.26.28.93-.26.89-.72l-.28-3.7c-.03-.4.49-.9.81-.78l2.94,1.13c.47.18,1.02-.43.79-.89l-1.86-3.76c-.09-.19.03-.52.28-.73l2.93-2.55c.21-.18.44-.23.57-.12l2,1.71c.26.22.85-.23.88-.68l.22-3.38c.03-.45.62-.9.88-.68l2.65,2.27c.29.25.96-.34.87-.78l-1.01-5.2c-.06-.31.28-.75.62-.83l8.86-1.89c.38-.08.73-.61.6-.9l-1.82-3.87c-.14-.3.26-.87.64-.9l2.95-.29c.4-.04.8-.62.64-.92l-.97-1.74c-.2-.37.43-1.08.8-.89h0c.3.15.84-.33.83-.75l-.04-1.91s0,0,0,0c0-.36-.05-.71-.21-1l3.32-1.33c.78-.31,1.12-1.32.62-1.85-1.74-1.85-5.36-5.09-5.65-4.97,0,0-31.57,36.64-31.12,36.45l2.41,2.61,1.52,1.29s.04.02.05.04Z" fill="#1f5e39"/>
    </g>
    <g>
      <path d="M283.89,374.51l2.15-2.19c.24-.24-.06-.68-.4-.58l-2.72.75c-.29.08-.58-.25-.45-.51l1.24-2.43c.2-.39-.16-.72-.53-.48l-2.99,1.98c-.15.1-.37.05-.49-.11l-1.42-1.89c-.1-.13-.1-.31,0-.42l1.53-1.79c.2-.23-.04-.62-.36-.58l-2.42.31c-.32.04-.56-.34-.36-.58l2.02-2.37c.22-.26-.11-.69-.44-.56l-3.91,1.52c-.23.09-.51-.1-.51-.36l-.1-6.55c0-.28-.34-.48-.56-.33l-3.06,1.96c-.24.15-.59-.07-.56-.37l.22-2.23c.03-.3-.34-.53-.57-.36l-1.4.99c-.3.21-.72-.18-.53-.49h0c.16-.25-.12-.6-.42-.54l-1.39.31s0,0,0,0c-.26.06-.52.14-.76.31l-.48-2.37c-.11-.56-.79-.67-1.25-.21-1.59,1.61-4.45,4.86-4.41,5.06,0,0,22.01,19.04,21.93,18.73l2.24-2.23,1.15-1.35s.02-.03.04-.05Z" fill="#1f5e39"/>
      <path d="M305.06,392.59l2.15-2.19c.24-.24-.06-.68-.4-.58l-2.72.75c-.29.08-.58-.25-.45-.51l1.24-2.43c.2-.39-.16-.72-.53-.48l-2.99,1.98c-.15.1-.37.05-.49-.11l-1.42-1.89c-.1-.13-.1-.31,0-.42l1.53-1.79c.2-.23-.04-.62-.36-.58l-2.42.31c-.32.04-.56-.34-.36-.58l2.02-2.37c.22-.26-.11-.69-.44-.56l-3.91,1.52c-.23.09-.51-.1-.51-.36l-.1-6.55c0-.28-.34-.48-.56-.33l-3.06,1.96c-.24.15-.59-.07-.56-.37l.22-2.23c.03-.3-.34-.53-.57-.36l-1.4.99c-.3.21-.72-.18-.53-.49h0c.16-.25-.12-.6-.42-.54l-1.39.31s0,0,0,0c-.26.06-.52.14-.76.31l-.48-2.37c-.11-.56-.79-.67-1.25-.21-1.59,1.61-4.45,4.86-4.41,5.06,0,0,22.01,19.04,21.93,18.73l2.24-2.23,1.15-1.35s.02-.03.04-.05Z" fill="#1f5e39"/>
    </g>
    <g>
      <path d="M166.87,506.96l-2.15,2.19c-.24.24.06.68.4.58l2.72-.75c.29-.08.58.25.45.51l-1.24,2.43c-.2.39.16.72.53.48l2.99-1.98c.15-.1.37-.05.49.11l1.42,1.89c.1.13.1.31,0,.42l-1.53,1.79c-.2.23.04.62.36.58l2.42-.31c.32-.04.56.34.36.58l-2.02,2.37c-.22.26.11.69.44.56l3.91-1.52c.23-.09.51.1.51.36l.1,6.55c0,.28.34.48.56.33l3.06-1.96c.24-.15.59.07.56.37l-.22,2.23c-.03.3.34.53.57.36l1.4-.99c.3-.21.72.18.53.49h0c-.16.25.12.6.42.54l1.39-.31s0,0,0,0c.26-.06.52-.14.76-.31l.48,2.37c.11.56.79.67,1.25.21,1.59-1.61,4.45-4.86,4.41-5.06,0,0-22.01-19.04-21.93-18.73l-2.24,2.23-1.15,1.35s-.02.03-.04.05Z" fill="#1f5e39"/>
      <path d="M145.7,488.88l-2.15,2.19c-.24.24.06.68.4.58l2.72-.75c.29-.08.58.25.45.51l-1.24,2.43c-.2.39.16.72.53.48l2.99-1.98c.15-.1.37-.05.49.11l1.42,1.89c.1.13.1.31,0,.42l-1.53,1.79c-.2.23.04.62.36.58l2.42-.31c.32-.04.56.34.36.58l-2.02,2.37c-.22.26.11.69.44.56l3.91-1.52c.23-.09.51.1.51.36l.1,6.55c0,.28.34.48.56.33l3.06-1.96c.24-.15.59.07.56.37l-.22,2.23c-.03.3.34.53.57.36l1.4-.99c.3-.21.72.18.53.49h0c-.16.25.12.6.42.54l1.39-.31s0,0,0,0c.26-.06.52-.14.76-.31l.48,2.37c.11.56.79.67,1.25.21,1.59-1.61,4.45-4.86,4.41-5.06,0,0-22.01-19.04-21.93-18.73l-2.24,2.23-1.15,1.35s-.02.03-.04.05Z" fill="#1f5e39"/>
    </g>
  </g>
  <g clip-path="url(#clippath)">
    <g>
      <rect x="111.42" y="150.92" width="333.33" height="71.25" fill="#b05e39"/>
      <path d="M111.42,140.79h333.33v42.72c0,7.52-6.11,13.63-13.63,13.63H125.05c-7.52,0-13.63-6.11-13.63-13.63v-42.72h0Z" fill="#694930"/>
      <path d="M111.42,132.79h333.33v30.66c0,10.42-8.46,18.88-18.88,18.88H130.3c-10.42,0-18.88-8.46-18.88-18.88v-30.66h0Z" fill="#3d2e25"/>
      <path d="M111.42,111.17h333.33v35.89c0,11.3-9.17,20.47-20.47,20.47H131.89c-11.3,0-20.47-9.17-20.47-20.47v-35.89h0Z" fill="#1f5e39"/>
      <g>
        <path d="M443.91,152.51H109.84v9.6c0,2.96,2.79,5.37,6.23,5.37h0l1.81,1.29c.1.07.16.19.15.3l-.24,3.42c-.03.38.55.53.78.21l1.82-2.61c.2-.28.69-.21.77.11l.73,2.97c.09.38.71.39.82.01l1.14-3.85c.06-.19.28-.31.51-.26l2.65.57c.19.04.32.19.32.35v2.63c0,.34.5.49.75.23l1.88-2.02c.25-.27.75-.12.75.23v3.48c0,.39.61.5.8.16l2.28-4.14c.13-.24.52-.28.71-.07l4.97,5.5c.21.24.65.16.74-.13l1.21-3.88c.1-.31.57-.37.76-.1l1.48,2.06c.2.28.69.21.77-.11l.48-1.86c.1-.39.76-.37.83.03.05.33.55.43.77.15l.98-1.27c.06-.08.15-.13.26-.15l.04-.16.77,1.77c.12.01.23.05.3.11l1.12.89c.24.19.81.13.88-.11.08-.28.83-.3.95-.02l.55,1.31c.09.22.65.27.88.08l1.69-1.44c.22-.19.76-.15.87.07l1.39,2.73c.1.2.6.26.84.09l5.68-3.86c.22-.15.66-.12.81.05l2.61,2.91c.22.24.92.16.92-.11v-2.44c0-.24.57-.35.86-.16l2.15,1.42c.28.19.86.08.86-.16v-1.84c0-.12.15-.22.36-.25l3.03-.4c.26-.03.52.05.58.18l1.3,2.7c.13.26.83.25.94-.01l.84-2.09c.09-.23.66-.28.88-.08l2.08,1.83c.26.23.92.12.89-.15l-.28-2.4c0-.08.06-.16.17-.21l3.52-1.54c.03,1.03.09,2.17.17,2.98.05.52.73.81,1.25.52l2.19-1.21c.08.22.25.42.43.59,0,0,0,0,0,0l.98.92c.21.2.71.13.77-.11.07-.29.73-.31.83-.02l.48,1.35c.08.23.57.28.77.08l1.48-1.49c.19-.2.67-.15.76.07l1.21,2.82c.09.21.52.26.74.09l4.97-3.99c.19-.15.58-.13.71.05l2.28,3c.19.25.8.17.8-.11v-2.53c0-.25.5-.36.75-.16l1.88,1.47c.25.19.75.08.75-.16v-1.91c0-.12.13-.23.32-.26l2.65-.41c.22-.04.45.05.51.19l1.14,2.8c.14.34.7.33.82-.02l.73-2.15c.08-.23.58-.29.77-.08l1.82,1.89c.23.24.81.12.78-.15l-.24-2.48s0-.03,0-.05v-1.44s0,0,0,0c-.07-1.1.95-2.03,2.23-2.03h.16c1.22,0,2.21.84,2.23,1.88s.09,2.21.17,3.04c.05.52.73.81,1.25.52l2.19-1.21c.08.22.25.42.43.59,0,0,0,0,0,0l.98.92c.21.2.71.13.77-.11.07-.29.73-.31.83-.02l.48,1.35c.08.23.57.28.77.08l1.48-1.49c.19-.2.67-.15.76.07l1.21,2.82c.09.21.52.26.74.09l4.97-3.99c.19-.15.58-.13.71.05l2.28,3c.19.25.8.17.8-.11v-2.53c0-.25.5-.36.75-.16l1.88,1.47c.25.19.75.08.75-.16v-1.91c0-.12.13-.23.32-.26l2.65-.41c.22-.04.45.05.51.19l1.14,2.8c.14.34.7.33.82-.02l.73-2.15c.08-.23.58-.29.77-.08l1.82,1.89c.23.24.81.12.78-.15l-.07-.71,1.9-1.05c.08.22.25.42.43.59,0,0,0,0,0,0l.98.92c.21.2.71.13.77-.11.07-.29.73-.31.83-.02l.48,1.35c.08.23.57.28.77.08l1.48-1.49c.19-.2.67-.15.76.07l1.21,2.82c.09.21.52.26.74.09l3.7-2.98.19.18c.21.2.71.13.77-.11.07-.29.73-.31.83-.02l.48,1.35c.08.23.57.28.77.08l.45-.46.77,1.01c.19.25.8.17.8-.11v-2.03c.1.03.18.09.22.17l1.21,2.82c.09.21.52.26.74.09l4.97-3.99h.06s.79,1.96.79,1.96c.14.34.7.33.82-.02l.15-.43,1.17,1.54c.19.25.8.17.8-.11v-2.57h.01s1.19,1.23,1.19,1.23c.23.24.81.12.78-.15l-.03-.26.67.52c.25.19.75.08.75-.16v-1.91c0-.12.13-.23.32-.26l2.65-.41c.22-.04.45.05.51.19l1.14,2.8c.14.34.7.33.82-.02l.73-2.15c.08-.23.58-.29.77-.08l1.82,1.89c.23.24.81.12.78-.15l-.07-.71,1.9-1.05c.08.22.25.42.43.59,0,0,0,0,0,0l.98.92c.21.2.71.13.77-.11.07-.29.73-.31.83-.02l.48,1.35c.08.23.57.28.77.08l1.48-1.49c.19-.2.67-.15.76.07l1.21,2.82c.09.21.52.26.74.09l4.97-3.99c.19-.15.58-.13.71.05l2.28,3c.19.25.8.17.8-.11v-2.53c0-.25.5-.36.75-.16l1.88,1.47c.25.19.75.08.75-.16v-1.91c0-.12.13-.23.32-.26l2.65-.41c.22-.04.45.05.51.19l1.14,2.8c.14.34.7.33.82-.02l.73-2.15c.08-.23.58-.29.77-.08l1.82,1.89c.23.24.81.12.78-.15l-.24-2.48s0-.03,0-.05v-1.44s.02-.05.02-.05c.34-1.3,2.5-1.26,2.78.05.13.61.23,1.09.25,1.31.04.38.54.59.91.38l1.6-.88c.06.16.18.3.32.43,0,0,0,0,0,0l.72.68c.16.15.52.1.56-.08.05-.21.53-.22.61-.01l.35.99c.06.17.42.21.56.06l1.08-1.09c.14-.14.49-.11.56.05l.89,2.07c.07.15.38.19.54.07l3.64-2.93c.14-.11.42-.09.52.04l1.67,2.2c.14.19.59.12.59-.08v-1.85c0-.18.37-.26.55-.12l1.37,1.07c.18.14.55.06.55-.12v-1.4c0-.09.1-.17.23-.19l1.94-.3c.16-.03.33.04.37.14l.83,2.05c.1.25.52.24.6-.01l.53-1.58c.06-.17.42-.21.57-.06l1.33,1.39c.17.17.59.09.57-.11l-.05-.52,1.39-.77c.06.16.18.3.32.43,0,0,0,0,0,0l.72.68c.16.15.52.1.56-.08.05-.21.53-.22.61-.01l.35.99c.06.17.42.21.56.06l1.08-1.09c.14-.14.49-.11.56.05l.89,2.07c.07.15.38.19.54.07l3.64-2.93c.14-.11.42-.09.52.04l1.67,2.2c.14.19.59.12.59-.08v-1.85c0-.18.37-.26.55-.12l1.37,1.07c.18.14.55.06.55-.12v-1.4c0-.09.1-.17.23-.19l1.94-.3c.16-.03.33.04.37.14l.83,2.05c.1.25.52.24.6-.01l.53-1.58c.06-.17.42-.21.57-.06l1.33,1.39c.17.17.59.09.57-.11l-.18-1.82s0-.02,0-.04v-1.06s0,0,0,0c-.07-.65.52-1.21,1.27-1.21h2.31c.69,0,1.26.48,1.28,1.07.02.77.07,1.64.13,2.26.04.38.54.59.91.38l1.6-.88c.06.16.18.3.32.43,0,0,0,0,0,0l.72.68c.16.15.52.1.56-.08.05-.21.53-.22.61-.01l.35.99c.06.17.42.21.56.06l1.08-1.09c.14-.14.49-.11.56.05l.89,2.07c.07.15.38.19.54.07l3.64-2.93c.14-.11.42-.09.52.04l1.67,2.2c.14.19.59.12.59-.08v-1.85c0-.18.37-.26.55-.12l1.37,1.07c.18.14.55.06.55-.12v-1.4c0-.09.1-.17.23-.19l1.94-.3c.16-.03.33.04.37.14l.83,2.05c.1.25.52.24.6-.01l.53-1.58c.06-.17.42-.21.57-.06l1.33,1.39c.17.17.59.09.57-.11l-.05-.52,1.39-.77c.06.16.18.3.32.43,0,0,0,0,0,0l.72.68c.16.15.52.1.56-.08.05-.21.53-.22.61-.01l.35.99c.06.17.42.21.56.06l1.08-1.09c.14-.14.49-.11.56.05l.89,2.07c.07.15.38.19.54.07l3.64-2.93c.14-.11.42-.09.52.04l1.67,2.2c.14.19.59.12.59-.08v-1.85c0-.18.37-.26.55-.12l1.37,1.07c.18.14.55.06.55-.12v-1.4c0-.09.1-.17.23-.19l1.94-.3c.16-.03.33.04.37.14l.83,2.05c.1.25.52.24.6-.01l.53-1.58c.06-.17.42-.21.57-.06l1.33,1.39c.17.17.59.09.57-.11l-.18-1.82s0-.02,0-.04v-1.06s-.13-1.21-.13-1.21h0c4.28,0,7.76-2.99,7.76-6.68v-8.28Z" fill="#1f5e39"/>
        <path d="M120.16,122.87h313.42c5.7,0,10.33,4.63,10.33,10.33v29.32H109.84v-29.32c0-5.7,4.63-10.33,10.33-10.33Z" fill="#1f5e39"/>
      </g>
    </g>
  </g>
</svg>